<svg xmlns="http://www.w3.org/2000/svg" xmlns:xlink="http://www.w3.org/1999/xlink" version="1.1" x="0px" y="0px" width="822.085px" height="166.298px" viewBox="0 0 822.085 166.298" enable-background="new 0 0 822.085 166.298" xml:space="preserve"><g id="Clear_space" display="none"><rect x="-65.81" y="-191.344" display="inline" fill="none" width="1583.499" height="396.068"/></g><g id="Boxes" display="none"><rect x="396.937" y="-61.012" display="inline" fill="none" width="65.821" height="65.806"/><rect x="1451.867" y="-61.012" display="inline" fill="none" width="65.821" height="65.806"/><rect x="346.481" y="-191.344" display="inline" fill="none" width="65.82" height="65.817"/><rect x="13.722" y="-191.344" display="inline" fill="none" width="65.812" height="65.817"/><rect x="13.722" y="138.915" display="inline" fill="none" width="65.812" height="65.809"/><rect x="-65.81" y="-107.403" display="inline" fill="none" width="65.81" height="65.813"/></g><g id="Type"><path d="M294.022 1.059c5.067 0 9.953 0.358 14.14 3.652 3.548 2.843 5.327 8.09 5.327 12.532 0 8.188-4.355 13.334-12.445 14.577 8.71 0.267 13.773 7.826 13.773 15.995 0 6.234-3.194 11.738-8.707 14.672 -4.356 2.316-11.11 2.224-15.908 2.224h-28.177v-8.087h7.287V9.066h-7.287V1.059H294.022zM281.483 9.066v19.108h7.12c2.936 0 7.106 0 9.425-1.952 2.137-1.874 3.288-4.983 3.288-7.823 0-3.649-1.15-6.931-4.63-8.531 -2.663-1.066-7.28-0.802-10.134-0.802H281.483zM289.67 56.712c3.286 0 6.844-0.088 9.506-2.313 2.579-2.312 3.474-4.882 3.474-8.262 0-3.376-1.248-6.49-4.094-8.358 -2.755-1.774-5.776-1.595-8.97-1.595h-8.103v20.528H289.67z"/><path d="M324.014 57.951c-3.91-4.876-5.42-11.117-5.42-17.242 0-6.663 1.599-12.709 6.227-17.692 4.172-4.436 10.483-6.756 16.521-6.756 15.206 0 23.382 10.581 23.382 24.888 0 13.694-8.443 24.625-23.024 24.625C335.305 65.773 328.011 62.934 324.014 57.951zM330.957 40.972c0 3.917 0.346 7.475 2.216 11.021 1.678 3.385 4.704 5.959 8.707 5.959 4.27 0 7.204-3.014 8.797-6.661 1.332-3.114 1.694-7.207 1.694-10.495 0-3.899-0.362-7.285-2.138-10.847 -1.689-3.285-4.526-5.863-8.533-5.863C333.173 24.085 330.957 34.396 330.957 40.972z"/><path d="M399.062 56.799c-2.411 6.049-7.828 8.975-14.145 8.975 -7.192 0-11.997-4.085-13.59-8.975 -0.628-5.156-0.628-7.021-0.628-8.353V24.971h-6.042V17.42h17.866V45.6c0 2.667-0.088 5.778 1.154 8.271 1.067 2.229 3.556 3.282 5.955 3.282 3.827 0 6.219-2.754 7.556-6.039 1.149-3.032 1.063-7.03 1.063-10.23V24.971h-6.396V17.42h18.22v39.732h6.224v7.559h-17.238V56.799z"/><path d="M437.118 27.458c1.86-8.261 7.464-11.639 15.74-10.835v11.552c-1.34-0.355-2.758-0.717-4.174-0.717 -4.365 0-8.182 2.667-9.706 6.675 -1.149 3.204-1.149 7.555-1.149 10.844v12.176h7.564v7.559h-25.609v-7.559h6.219V24.971h-6.219V17.42h17.334V27.458z"/><path d="M473.858 25.152c3.025-6.048 7.562-8.892 14.223-8.892 7.288 0 12.804 4.544 13.87 8.892 0.614 2.491 0.614 4.358 0.614 6.403v25.597h5.875v7.559h-23.206v-7.559h5.512V35.913c0-2.313 0.08-4.184-0.623-6.49 -0.799-2.847-3.194-4.986-6.312-4.986 -8.627 0-9.16 8.091-9.16 14.676v18.04h5.694v7.559h-23.732v-7.559h6.22V24.971h-6.22V17.42h17.245V25.152z"/><path d="M521.487 43.465c-0.086 6.763 2.756 14.579 10.841 14.579 4.718 0 8.002-3.201 8.802-7.729h11.296c-0.804 10.395-11.121 15.458-20.71 15.458 -3.033 0-7.118-0.97-9.875-2.205 -3.114-1.439-5.152-3.215-7.195-5.977 -3.738-4.789-5.151-11.01-5.151-16.972 0-12.977 7.366-24.359 21.678-24.359 6.317 0 12.271 1.698 16.63 6.328 3.819 4.074 4.971 10.749 5.239 16.071 0.087 1.433 0.273 2.762 0.087 4.101 0 0.262-0.087 0.438-0.087 0.704H521.487zM541.13 36.626c-0.093-5.341-2.222-12.993-8.977-12.993 -7.471 0-9.86 6.767-10.399 12.993H541.13z"/><path d="M573.627 25.152c3.028-6.048 8.002-8.892 14.844-8.892 6.315 0 10.93 2.406 13.16 8.892 2.574-6.048 7.655-8.892 13.784-8.892 6.75 0 11.552 3.118 13.856 8.892 1.162 2.937 0.803 5.072 0.803 7.375v24.625h5.787v7.559h-23.212v-7.559h5.605V36.097c0-4.812-0.619-11.126-7.022-11.126 -3.468 0-5.957 1.605-7.47 4.804 -1.516 3.11-1.516 5.788-1.516 9.157v18.221h5.518v7.559h-22.758v-7.559h5.424V35.286c0-2.67 0-4.709-1.152-7.197 -0.893-1.866-3.201-3.118-5.249-3.118 -4.979 0-7.642 3.029-8.974 7.475 -0.627 2.299-0.627 4.539-0.627 6.93v17.777h5.687v7.559h-23.728v-7.559h6.216V24.971h-6.216V17.42h17.241V25.152z"/><path d="M642.379 57.951c-3.926-4.876-5.425-11.117-5.425-17.242 0-6.663 1.592-12.709 6.224-17.692 4.181-4.436 10.485-6.756 16.536-6.756 15.205 0 23.376 10.581 23.376 24.888 0 13.694-8.443 24.625-23.021 24.625C653.664 65.773 646.372 62.934 642.379 57.951zM649.31 40.972c0 3.917 0.358 7.475 2.219 11.021 1.693 3.385 4.721 5.959 8.717 5.959 4.271 0 7.21-3.014 8.804-6.661 1.332-3.114 1.694-7.207 1.694-10.495 0-3.899-0.363-7.285-2.143-10.847 -1.679-3.285-4.533-5.863-8.532-5.863C651.529 24.085 649.31 34.396 649.31 40.972z"/><path d="M717.927 56.799c-2.41 6.049-7.835 8.975-14.143 8.975 -7.204 0-11.995-4.085-13.6-8.975 -0.622-5.156-0.622-7.021-0.622-8.353V24.971h-6.043V17.42h17.865V45.6c0 2.667-0.089 5.778 1.153 8.271 1.067 2.229 3.558 3.282 5.964 3.282 3.81 0 6.213-2.754 7.55-6.039 1.153-3.032 1.066-7.03 1.066-10.23V24.971h-6.401V17.42h18.228v39.732h6.219v7.559h-17.237V56.799z"/><path d="M768.207 52.263c0 5.601-1.766 10.764-7.642 12.63 -0.974 0.351-3.915 0.881-4.884 0.881 -2.135 0-3.38-0.354-5.421-0.881 -4.09-1.248-6.312-4.098-7.203-8.094 -0.437-1.956-0.351-6.129-0.351-8.271V24.971h-7.025V17.42h7.025V9.336l11.812-4.005V17.42h11.833v7.551H754.52v29.603c0 0.892 0.534 2.666 1.431 3.019 5.419 2.228 5.062-5.329 4.973-8.53h7.284V52.263z"/><path d="M770.174 64.711v-7.559h6.049V7.554h-6.049V0h17.864v23.556c3.292-5.244 7.288-7.295 13.51-7.295 3.91 0 8.63 1.159 11.293 4.185 2.838 3.188 3.283 7.101 3.283 11.198v25.509h5.961v7.559h-23.56v-7.559h5.778V35.913c0-1.78-0.177-3.649-0.435-5.426 -0.266-3.381-3.031-6.139-6.489-6.139 -4.264 0-6.669 2.228-8.099 6.051 -1.327 3.293-1.243 6.585-1.243 10.045v16.708h5.783v7.559H770.174z"/><path d="M262.025 87.085h26.491v8.006h-7.912v30.227c0 4.536-0.089 8.784 2.307 12.707 2.313 3.737 6.227 5.328 10.577 5.328 2.221 0 3.735-0.442 5.781-1.329 3.289-1.335 5.151-5.061 6.138-8.275 0.797-2.922 0.613-6.384 0.613-9.312V95.091h-7.812v-8.006h25.327v8.006h-6.399v28.273c0 4.795 0.272 10.297-1.691 14.846 -1.952 4.438-5.249 8.183-9.425 10.571 -3.371 2.04-9.686 3.016-13.688 3.016 -3.905 0-9.599-1.151-12.978-3.016 -3.729-1.947-6.485-5.167-8.447-8.803 -2.577-4.608-2.483-9.859-2.483-15.013V95.091h-6.399V87.085z"/><path d="M340.44 111.182c3.021-6.034 7.559-8.883 14.225-8.883 7.284 0 12.795 4.533 13.866 8.883 0.626 2.488 0.626 4.358 0.626 6.411v25.583h5.867v7.564h-23.207v-7.564h5.511v-21.237c0-2.312 0.093-4.172-0.618-6.495 -0.797-2.841-3.198-4.978-6.312-4.978 -8.622 0-9.155 8.092-9.155 14.679v18.031h5.691v7.564h-23.738v-7.564h6.222v-32.172h-6.222v-7.562h17.245V111.182z"/><path d="M377.826 150.74v-7.564h6.317v-32.172h-6.317v-7.562h18.138v39.733h5.509v7.564H377.826zM396.463 85.399v10.835h-11.83V85.399H396.463z"/><path d="M401.316 103.442h22.217v7.562h-5.858l8.801 30.127h0.091l9.944-30.127h-5.954v-7.562h20.806v7.562h-3.646l-13.958 39.736h-14.666l-14.044-39.736h-3.732V103.442z"/><path d="M464.053 129.49c-0.084 6.761 2.755 14.573 10.839 14.573 4.72 0 8.008-3.193 8.803-7.725h11.292c-0.799 10.406-11.111 15.458-20.706 15.458 -3.023 0-7.115-0.976-9.873-2.214 -3.102-1.42-5.149-3.19-7.189-5.969 -3.735-4.784-5.16-11.008-5.16-16.968 0-12.977 7.379-24.348 21.687-24.348 6.305 0 12.255 1.685 16.622 6.306 3.82 4.087 4.979 10.751 5.245 16.097 0.091 1.418 0.27 2.747 0.091 4.079 0 0.266-0.091 0.439-0.091 0.71H464.053zM483.695 122.647c-0.08-5.331-2.213-12.979-8.978-12.979 -7.468 0-9.859 6.756-10.397 12.979H483.695z"/><path d="M516.116 113.502c1.863-8.276 7.468-11.652 15.73-10.854v11.563c-1.34-0.366-2.756-0.709-4.176-0.709 -4.358 0-8.185 2.668-9.692 6.655 -1.151 3.207-1.151 7.553-1.151 10.841v12.178h7.548v7.564h-25.593v-7.564h6.227v-32.172h-6.227v-7.562h17.334V113.502z"/><path d="M562.41 118.648c-0.541-5.067-2.407-9.249-8.088-9.249 -3.819 0-7.387 1.692-7.387 6.044 0 1.519 0.445 2.5 1.43 3.648 0.789 0.624 1.775 0.889 2.67 1.326 5.056 1.434 14.575 2.136 18.121 6.584 2.41 2.94 3.298 5.69 3.298 9.43 0.089 2.755-1.157 7.009-2.937 9.508 -2.13 2.935-7.291 5.857-13.951 5.857 -4.447 0-9.259-2.037-11.652-5.857v4.801h-8.531v-16.463h9.242c0.362 5.881 2.936 9.967 9.26 9.967 3.281 0 6.66-2.312 6.66-5.857 0-1.782-0.542-3.92-2.319-4.813 -5.333-2.575-11.827-1.948-16.9-5.325 -4.333-3.017-6.032-7.112-6.032-12.354 -0.449-3.921 1.875-6.762 3.11-8.532 1.776-2.49 7.643-5.062 13.159-5.062 4.094 0 8.717 1.777 11.202 5.062v-3.919h8.356v15.206H562.41z"/><path d="M576.859 150.74v-7.564h6.315v-32.172h-6.315v-7.562h18.133v39.733h5.513v7.564H576.859zM594.992 85.399v10.835h-11.818V85.399H594.992z"/><path d="M633.556 138.305c0 5.586-1.772 10.746-7.642 12.605 -0.989 0.357-3.913 0.887-4.893 0.887 -2.13 0-3.381-0.363-5.423-0.887 -4.082-1.241-6.299-4.076-7.192-8.086 -0.454-1.954-0.365-6.134-0.365-8.266v-23.555h-7.027v-7.562h7.027v-8.088l11.827-3.992v12.08h11.827v7.562h-11.827v29.597c0 0.894 0.535 2.663 1.413 3.014 5.432 2.238 5.081-5.31 4.99-8.505h7.285V138.305z"/><path d="M634.356 103.442h22.661v7.562h-6.137l9.077 24.982 0.446 1.146 9.062-26.128h-5.857v-7.562h20.969v7.562h-3.721l-16.897 42.663c-2.844 7.386-5.609 12.631-14.495 12.631 -2.4 0-4.793 0-7.101-0.447v-8.173c1.586 0.09 3.178 0.257 4.788 0.257 4.263 0 5.157-1.428 6.673-5.058l0.619-1.521 -16.271-40.352h-3.817V103.442z"/></g><g id="_x0022_U_x0022_"><defs><path id="SVGID_1_" d="M200.807 1.061v98.815c0 18.887-12.326 31.092-31.406 31.092 -19.079 0-31.412-12.205-31.412-31.092V22.514h2.637v77.362c0 17.29 11.293 28.46 28.775 28.46 17.482 0 28.774-11.17 28.774-28.46V22.514h-10.681v77.362c0 10.925-5.883 17.776-18.093 17.776 -12.209 0-18.097-6.852-18.097-17.776V11.751h-23.945v85.128c0 27.201 15.717 43.437 42.042 43.437 26.323 0 42.04-16.235 42.04-43.437V11.833h2.632v85.046c0 28.847-16.699 46.068-44.672 46.068 -27.971 0-44.674-17.222-44.674-46.068V1.068h-10.683v95.811c0 34.266 20.88 56.756 55.357 56.756 34.48 0 55.355-22.49 55.355-56.756V1.061H200.807z"/></defs><clipPath id="SVGID_2_"><use xlink:href="#SVGID_1_" overflow="visible"/></clipPath><g clip-path="url(#SVGID_2_)"><rect x="86.108" y="-6.713" fill="#EE7326" width="94.154" height="3.525"/><rect x="86.108" y="-5.019" fill="#EE7227" width="94.154" height="3.524"/><rect x="86.108" y="-3.324" fill="#EE7227" width="94.154" height="3.525"/><rect x="86.112" y="-1.63" fill="#EE7228" width="94.159" height="3.524"/><rect x="86.108" y="0.064" fill="#EE7129" width="94.154" height="3.525"/><rect x="86.108" y="1.759" fill="#EE712A" width="94.154" height="3.525"/><rect x="86.108" y="3.454" fill="#EE702B" width="94.163" height="3.524"/><rect x="86.108" y="5.148" fill="#EE702C" width="94.154" height="3.525"/><rect x="86.108" y="6.843" fill="#EE702C" width="94.154" height="3.525"/><rect x="86.112" y="8.536" fill="#ED6F2D" width="94.159" height="3.525"/><rect x="86.108" y="10.231" fill="#ED6F2E" width="94.154" height="3.524"/><rect x="86.108" y="11.926" fill="#ED6E2F" width="94.154" height="3.525"/><rect x="86.108" y="13.62" fill="#ED6E2F" width="94.154" height="3.524"/><rect x="86.108" y="15.314" fill="#ED6E30" width="94.154" height="3.524"/><rect x="86.108" y="17.009" fill="#ED6D31" width="94.154" height="3.525"/><rect x="86.108" y="18.703" fill="#ED6D32" width="94.154" height="3.524"/><rect x="86.108" y="20.397" fill="#ED6C32" width="94.154" height="3.524"/><rect x="86.108" y="22.092" fill="#ED6C33" width="94.154" height="3.524"/><rect x="86.108" y="23.786" fill="#ED6C34" width="94.154" height="3.524"/><rect x="86.108" y="25.48" fill="#ED6B35" width="94.154" height="3.525"/><rect x="86.108" y="27.176" fill="#ED6B35" width="94.154" height="3.524"/><rect x="86.108" y="28.869" fill="#ED6A36" width="94.154" height="3.525"/><rect x="86.108" y="30.564" fill="#ED6A37" width="94.154" height="3.524"/><rect x="86.108" y="32.259" fill="#ED6A37" width="94.154" height="3.524"/><rect x="86.108" y="33.953" fill="#ED6938" width="94.154" height="3.524"/><rect x="86.108" y="35.647" fill="#ED6939" width="94.154" height="3.525"/><rect x="86.108" y="37.342" fill="#ED6939" width="94.154" height="3.525"/><rect x="86.108" y="39.036" fill="#EC683A" width="94.154" height="3.525"/><rect x="86.108" y="40.729" fill="#EC683B" width="94.154" height="3.526"/><rect x="86.108" y="42.425" fill="#EC673B" width="94.154" height="3.525"/><rect x="86.108" y="44.118" fill="#EC673C" width="94.154" height="3.526"/><rect x="86.108" y="45.813" fill="#EC673D" width="94.154" height="3.525"/><rect x="86.108" y="47.508" fill="#EC663D" width="94.154" height="3.525"/><rect x="86.108" y="49.203" fill="#EC663E" width="94.154" height="3.524"/><rect x="86.108" y="50.897" fill="#EC663F" width="94.154" height="3.524"/><rect x="86.108" y="52.591" fill="#EC653F" width="94.154" height="3.525"/><rect x="86.108" y="54.285" fill="#EC6540" width="94.154" height="3.525"/><rect x="86.108" y="55.979" fill="#EC6440" width="94.154" height="3.525"/><rect x="86.108" y="57.674" fill="#EC6441" width="94.154" height="3.524"/><rect x="86.108" y="59.368" fill="#EC6442" width="94.154" height="3.525"/><rect x="86.108" y="61.063" fill="#EC6342" width="94.154" height="3.524"/><rect x="86.108" y="62.758" fill="#EC6343" width="94.154" height="3.525"/><rect x="86.108" y="64.452" fill="#EC6343" width="94.154" height="3.524"/><rect x="86.108" y="66.146" fill="#EC6244" width="94.154" height="3.526"/><rect x="86.108" y="67.841" fill="#EC6244" width="94.154" height="3.525"/><rect x="86.108" y="69.535" fill="#EC6145" width="94.154" height="3.525"/><rect x="86.108" y="71.229" fill="#EC6146" width="94.154" height="3.525"/><rect x="86.108" y="72.923" fill="#EC6146" width="94.154" height="3.526"/><rect x="86.108" y="74.618" fill="#EC6047" width="94.154" height="3.525"/><rect x="86.108" y="76.312" fill="#EC6047" width="94.154" height="3.526"/><rect x="86.108" y="78.007" fill="#EC5F48" width="94.154" height="3.525"/><rect x="86.108" y="79.702" fill="#EC5F48" width="94.154" height="3.524"/><rect x="86.108" y="81.396" fill="#EB5F49" width="94.154" height="3.525"/><rect x="86.108" y="83.091" fill="#EB5E49" width="94.154" height="3.524"/><rect x="86.108" y="84.784" fill="#EB5E4A" width="94.154" height="3.525"/><rect x="86.108" y="86.479" fill="#EB5D4A" width="94.154" height="3.524"/><rect x="86.108" y="88.173" fill="#EB5D4B" width="94.154" height="3.525"/><rect x="86.108" y="89.867" fill="#EB5C4B" width="94.154" height="3.525"/><rect x="86.108" y="91.562" fill="#EB5C4C" width="94.154" height="3.526"/><rect x="86.108" y="93.257" fill="#EB5B4C" width="94.154" height="3.525"/><rect x="86.108" y="94.951" fill="#EB5B4D" width="94.154" height="3.525"/><path fill="#EB5B4D" d="M86.178 102.213c0 0-0.009-0.221-0.023-0.551 -0.015-0.715-0.03-1.49-0.047-2.31 0-0.095 0-0.194 0-0.298 0-0.206 0-0.427 0-0.646 0-0.882 0-1.763 0-1.763h94.154c0 0 0 0.881 0 1.763 0 0.22 0 0.44 0 0.646 0 0.104 0 0.203 0 0.298v0.139 0.032 0.017 0.008 0.005 0.001c0.01 0.444-0.084-3.867-0.044-2.042v0.002l0.003 0.063c0.014 0.33 0.023 0.551 0.023 0.551L86.178 102.213z"/><path fill="#EB5A4E" d="M86.251 103.906c0 0-0.038-0.881-0.075-1.761l-0.014-0.329c-0.019-0.804-0.037-1.595-0.054-2.36 0-0.207 0-0.399 0-0.565 0-0.33 0-0.551 0-0.551h94.154c0 0 0 0.221 0 0.551 0 0.166 0 0.358 0 0.565v0.078 0.02c-0.089-4.081-0.024-1.131-0.044-2.041v0.001 0.002l0 0.005 0 0.01 0.001 0.04 0.007 0.161 0.014 0.328 0.014 0.329 0.007 0.161 0.003 0.079 -0.075 0.081c-0.201 0.216-0.389 0.417-0.549 0.589 -0.322 0.345-0.536 0.574-0.536 0.574L86.251 103.906z"/><path fill="#EB5A4E" d="M86.324 105.608l-0.151-3.531 94.065-4.086c0 0 0.009 0.221 0.023 0.551 0.043 0.081-0.085 0.176-0.17 0.274 -0.092 0.099-0.189 0.203-0.29 0.311 -0.201 0.216-0.416 0.445-0.63 0.676 -0.429 0.46-0.857 0.919-1.179 1.265 -0.321 0.341-0.537 0.583-0.535 0.565L86.324 105.608z"/><path fill="#EB594E" d="M86.75 110.061c0 0-0.063-0.579-0.157-1.447 -0.042-0.435-0.09-0.941-0.142-1.484 -0.042-0.511-0.086-1.055-0.131-1.599 -0.038-0.88-0.075-1.761-0.075-1.761l92.993-4.038c0 0-0.857 0.919-1.715 1.838 -0.057 0.093-0.1 0.045-0.146 0.016l-0.137-0.081c-0.092-0.052-0.183-0.103-0.27-0.152 -0.18-0.094-0.348-0.181-0.492-0.255 -0.296-0.138-0.494-0.229-0.494-0.229L86.75 110.061z"/><path fill="#EB594F" d="M87.339 114.5c0 0-0.354-2.302-0.61-4.619 -0.131-1.158-0.242-2.318-0.317-3.187 -0.035-0.435-0.065-0.797-0.085-1.05 -0.006-0.116-0.01-0.183-0.01-0.183l91.273-3.964c0.001-0.014-0.057 0.087-0.145 0.128 -0.081-0.047-0.196-0.115-0.335-0.196 -0.28-0.158-0.664-0.358-1.064-0.535 -0.795-0.362-1.665-0.603-1.665-0.603L87.339 114.5z"/><path fill="#EB584F" d="M88.087 118.355c0 0-0.102-0.474-0.255-1.185 -0.074-0.355-0.16-0.771-0.252-1.216 -0.091-0.43-0.18-1.082-0.267-1.633 -0.351-2.302-0.603-4.62-0.603-4.62l89.399-8.78c0 0-0.793-0.366-1.659-0.611 -0.2-0.045-0.469-0.159-0.606-0.128 -0.148 0.022-0.287 0.043-0.406 0.061 -0.241 0.042-0.401 0.07-0.401 0.07L88.087 118.355z"/><path fill="#EB5850" d="M88.931 121.99c0 0-0.463-1.884-0.875-3.779 -0.207-0.957-0.405-1.878-0.547-2.629 -0.133-0.862-0.222-1.437-0.222-1.437l87.229-13.815c0 0-0.217-0.059-0.543-0.147 -0.26-0.001-0.559 0.067-0.888 0.122 -0.645 0.117-1.317 0.311-1.317 0.311L88.931 121.99z"/><path fill="#EB5750" d="M89.964 125.647c0 0-0.656-1.938-1.069-3.803 -0.461-1.885-0.872-3.781-0.872-3.781l85.111-17.769c0 0-0.645 0.115-1.316 0.306 -0.326 0.088-0.708 0.224-0.859 0.246 -0.191 0.049-0.318 0.082-0.318 0.082L89.964 125.647z"/><path fill="#EB5751" d="M91.186 129.321c0 0-0.663-1.902-1.269-3.823 -0.302-0.959-0.612-1.929-0.768-2.624 -0.174-0.706-0.29-1.177-0.29-1.177l83.012-21.111c0.024-0.017-0.753 0.236-1.19 0.332 -0.511 0.135-1.049 0.34-1.049 0.34L91.186 129.321z"/><path fill="#EB5751" d="M92.583 132.979c0 0-0.202-0.478-0.504-1.195 -0.29-0.716-0.608-1.657-0.943-2.61 -0.661-1.902-1.264-3.823-1.265-3.823l80.851-24.443c0 0-0.51 0.132-1.047 0.335 -0.262 0.104-0.523 0.209-0.72 0.288 -0.14 0.049-0.233 0.082-0.233 0.082L92.583 132.979z"/><path fill="#EA5652" d="M94.206 136.634c0 0-0.874-1.888-1.686-3.801 -0.199-0.479-0.398-0.957-0.585-1.405 -0.159-0.444-0.308-0.858-0.436-1.213 -0.249-0.713-0.415-1.188-0.415-1.188l78.632-27.8c0 0-0.135 0.052-0.336 0.13 -0.102 0.043-0.221 0.093-0.349 0.146 -0.089 0.031-0.185 0.064-0.281 0.099 -0.376 0.133-0.779 0.33-0.779 0.33L94.206 136.634z"/><path fill="#EA5652" d="M95.992 140.236c0 0-0.254-0.467-0.635-1.168 -0.333-0.704-0.776-1.644-1.219-2.583 -0.872-1.888-1.681-3.802-1.681-3.802l76.323-31.093c0 0-0.375 0.131-0.777 0.326 -0.2 0.096-0.404 0.204-0.56 0.292 -0.092 0.042-0.153 0.07-0.153 0.07L95.992 140.236z"/><path fill="#EA5552" d="M98.023 143.794c0 0-1.088-1.834-2.112-3.702 -0.535-0.935-0.961-1.869-1.295-2.575 -0.328-0.707-0.547-1.179-0.547-1.179l73.965-34.437c0 0-0.362 0.185-0.725 0.369 -0.243 0.111-0.516 0.278-0.516 0.278L98.023 143.794z"/><path fill="#EA5553" d="M100.211 147.276c0 0-0.319-0.442-0.757-1.117 -0.413-0.684-0.963-1.595-1.514-2.507 -1.086-1.835-2.107-3.705-2.107-3.705l71.495-37.686c0 0-0.243 0.109-0.514 0.274 -0.235 0.151-0.469 0.303-0.469 0.303L100.211 147.276z"/><path fill="#EA5453" d="M102.641 150.66c0 0-1.295-1.739-2.525-3.521 -0.639-0.885-1.157-1.8-1.578-2.482 -0.408-0.688-0.68-1.145-0.68-1.145l68.978-40.989c0 0-0.24 0.155-0.48 0.311 -0.118 0.066-0.269 0.18-0.269 0.18L102.641 150.66z"/><path fill="#EA5454" d="M105.214 153.94c0 0-0.368-0.406-0.875-1.042 -0.49-0.647-1.144-1.511-1.798-2.373 -1.293-1.741-2.521-3.524-2.521-3.524l66.344-44.173c0 0-0.117 0.065-0.267 0.177 -0.078 0.063-0.156 0.126-0.215 0.174 -0.042 0.036-0.014 0.009-0.023 0.018L105.214 153.94z"/><path fill="#EA5354" d="M108.009 157.072c0 0-1.483-1.604-2.905-3.26 -0.732-0.814-1.353-1.694-1.853-2.337 -0.486-0.651-0.81-1.086-0.81-1.086l63.667-47.393 -0.298 0.235L108.009 157.072z"/><path fill="#EA5355" d="M110.93 160.078c0 0.001-0.408-0.36-0.98-0.943 -0.561-0.597-1.308-1.392-2.055-2.187 -1.481-1.606-2.901-3.264-2.901-3.264l60.867-50.488c0 0-0.004-0.003-0.046 0.033 -0.025 0.023-0.05 0.048-0.069 0.065 0.021-0.021 0.036-0.034 0.036-0.034L110.93 160.078z"/><path fill="#EA5255" d="M114.037 162.892c0 0-1.643-1.436-3.229-2.928 -0.81-0.728-1.531-1.55-2.099-2.138 -0.557-0.602-0.927-1.002-0.927-1.002l58.036-53.598c0 0-0.011 0.01-0.027 0.024l-0.034 0.033c-0.028 0.027-0.012 0.014 0.019-0.017 0.09-0.091 0.135-0.15 0.135-0.15L114.037 162.892z"/><path fill="#EA5255" d="M117.247 165.562c0 0-0.438-0.31-1.064-0.828 -0.62-0.533-1.446-1.243-2.272-1.953 -1.641-1.437-3.226-2.932-3.226-2.932l55.082-56.574c0 0 0.092-0.092 0.139-0.152 0.018-0.025 0.036-0.05 0.05-0.069 0.049-0.059 0.082-0.098 0.082-0.098L117.247 165.562z"/><path fill="#EA5156" d="M120.599 168.007c0 0-1.766-1.242-3.483-2.544 -0.87-0.628-1.68-1.376-2.304-1.897 -0.616-0.537-1.027-0.896-1.027-0.896l52.117-59.543c0 0 0.011-0.015 0.028-0.036l0.021-0.03 0.012-0.018 0.062-0.073c0.166-0.198 0.277-0.37 0.277-0.37L120.599 168.007z"/><path fill="#EA5156" d="M124.025 170.301c0 0-0.113-0.067-0.311-0.188 -0.198-0.119-0.48-0.285-0.814-0.518 -0.665-0.46-1.551-1.073-2.438-1.686 -1.764-1.244-3.48-2.549-3.48-2.549l49.03-62.376c0 0 0.167-0.199 0.281-0.372 0.059-0.087 0.107-0.168 0.139-0.226 0.029-0.055 0.122-0.182 0.109-0.167L124.025 170.301z"/><path fill="#EA5056" d="M127.54 172.344c0 0-1.847-1.033-3.656-2.128 -0.908-0.524-1.79-1.182-2.456-1.629 -0.662-0.465-1.104-0.774-1.104-0.774l45.958-65.186c0 0 0.121-0.19 0.241-0.381 0.218-0.319 0.373-0.615 0.373-0.615L127.54 172.344z"/><path fill="#EA5057" d="M131.107 174.247c0 0-0.463-0.196-1.163-0.584 -0.695-0.382-1.622-0.891-2.548-1.399 -1.846-1.036-3.653-2.133-3.653-2.133l42.764-67.86c0 0 0.219-0.32 0.377-0.617 0.081-0.148 0.149-0.293 0.196-0.397 0.03-0.083 0.126-0.242 0.116-0.229L131.107 174.247z"/><path fill="#EA4F57" d="M134.71 175.882c0 0-1.889-0.822-3.748-1.703 -0.93-0.438-1.862-0.979-2.555-1.352 -0.692-0.387-1.154-0.645-1.154-0.645l39.619-70.506c0.015-0.02 0.132-0.258 0.307-0.615 0.246-0.448 0.422-0.876 0.422-0.876L134.71 175.882z"/><path fill="#EA4F58" d="M138.35 177.401c0 0-0.117-0.043-0.323-0.118 -0.208-0.085-0.505-0.208-0.861-0.354 -0.71-0.303-1.656-0.707-2.603-1.111 -1.887-0.824-3.745-1.707-3.745-1.707l36.342-73.015c0 0 0.248-0.449 0.427-0.877 0.194-0.441 0.289-0.808 0.325-0.858L138.35 177.401z"/><path fill="#EA4E58" d="M141.968 178.638c0 0-1.893-0.617-3.763-1.288 -1.9-0.756-3.786-1.595-3.786-1.595l33.154-75.503c0 0 0.179-0.419 0.319-0.847 0.252-0.581 0.429-1.141 0.429-1.141L141.968 178.638z"/><path fill="#EA4E58" d="M145.619 179.783c0 0-1.905-0.568-3.795-1.193 -1.893-0.619-3.763-1.293-3.763-1.293l29.813-77.849c0 0 0.254-0.581 0.434-1.141 0.187-0.562 0.303-1.098 0.303-1.098L145.619 179.783z"/><path fill="#EA4D59" d="M149.204 180.66c0 0-0.466-0.108-1.166-0.271 -0.704-0.176-1.619-0.37-2.567-0.65 -1.905-0.57-3.796-1.197-3.796-1.197l26.618-80.189c0 0 0.189-0.563 0.308-1.1 0.097-0.339 0.193-0.678 0.266-0.932 0.066-0.261 0.109-0.435 0.109-0.435L149.204 180.66z"/><path fill="#EA4D59" d="M152.802 181.442c0 0-1.876-0.383-3.742-0.815 -0.931-0.222-1.862-0.444-2.561-0.611 -0.69-0.16-1.174-0.321-1.174-0.321l23.266-82.401c-0.035 0.055 0.206-0.657 0.372-1.354 0.17-0.693 0.266-1.358 0.266-1.358L152.802 181.442z"/><path fill="#E94C59" d="M156.331 182.018c0 0-0.455-0.065-1.137-0.163 -0.678-0.094-1.585-0.23-2.535-0.442 -1.876-0.384-3.744-0.818-3.744-0.818l20.035-84.601c0 0 0.173-0.695 0.271-1.361 0.03-0.175 0.037-0.313 0.077-0.505 0.039-0.194 0.076-0.375 0.107-0.53 0.054-0.309 0.09-0.514 0.09-0.514L156.331 182.018z"/><path fill="#E94C5A" d="M159.834 182.47c0 0-1.823-0.236-3.645-0.473 -0.912-0.13-1.813-0.256-2.503-0.376 -0.703-0.144-1.172-0.238-1.172-0.238l16.7-86.699c0 0 0.023-0.166 0.059-0.415 0.054-0.284 0.149-0.72 0.212-1.122 0.139-0.819 0.201-1.609 0.201-1.609L159.834 182.47z"/><path fill="#E94B5A" d="M163.282 182.784c0 0-0.438-0.026-1.097-0.065 -0.658-0.041-1.589-0.164-2.495-0.267 -1.822-0.237-3.643-0.475-3.643-0.475l13.426-88.768c0 0 0.142-0.82 0.206-1.611 0.042-0.41 0.038-0.753 0.079-1.105 0.038-0.354 0.063-0.588 0.063-0.588L163.282 182.784z"/><path fill="#E94B5A" d="M166.663 182.943c0 0-1.757-0.084-3.514-0.167 -0.439-0.026-0.878-0.054-1.289-0.078 -0.428-0.047-0.827-0.091-1.169-0.129 -0.685-0.08-1.141-0.134-1.141-0.134l10.125-90.775c0 0 0.015-0.197 0.038-0.493 0.007-0.146 0.016-0.316 0.025-0.499 0.024-0.221 0.051-0.456 0.077-0.691 0.02-0.233 0.04-0.467 0.058-0.686 0.007-0.108 0.014-0.213 0.02-0.312l0.008-0.134 0-0.001 0.002 0.001L166.663 182.943z"/><path fill="#E94A5B" d="M171.985 182.994c0 0-0.014 0.001-0.04 0.002 -0.564 0.012-1.26 0.025-2.078 0.043 -0.037-0.001-0.08-0.002-0.128-0.003 -0.192-0.005-0.467-0.012-0.796-0.02 -0.659-0.021-1.539-0.05-2.417-0.078 -1.757-0.085-3.514-0.17-3.514-0.17l6.795-92.719c0 0 0.021-0.234 0.052-0.585 0.012-0.174 0.025-0.376 0.04-0.593 0.003-0.056 0.002-0.017 0.004-0.027 0.002 0.002 0.003 0.012 0.005 0.022l0.002 0.015 0 0.003 0 0v0.001l0 0c-4.014 0.085-1.112 0.023-2.008 0.042h0 0 0.003l0.021-0.001c0.026-0.001 0.04-0.001 0.04-0.001L171.985 182.994z"/><path fill="#E94A5B" d="M173.678 182.923c0 0-0.22 0.01-0.551 0.023 -0.165 0.007-0.357 0.015-0.564 0.023 -0.104 0.004-0.21 0.009-0.318 0.014 -0.772 0.019-1.556 0.037-2.34 0.057 -1.758-0.054-3.516-0.107-3.516-0.107l3.514-94.089c0 0 0.003 0.003 0.007 0.041v0.001c0.437-0.01-3.803 0.081-2.008 0.042h0.001 0.005 0.01l0.021-0.001 0.041-0.002 0.083-0.003 0.164-0.008c0.108-0.004 0.215-0.009 0.318-0.013 0.207-0.009 0.399-0.017 0.564-0.024 0.331-0.014 0.551-0.022 0.551-0.022L173.678 182.923z"/><path fill="#E9495B" d="M175.37 182.852c0 0-0.88 0.037-1.761 0.074 -0.44 0.019-0.881 0.037-1.211 0.051 -0.165 0.007-0.303 0.013-0.399 0.017 -0.927 0.02-1.656 0.035-2.153 0.045 -0.051-0.001-0.079-0.001-0.079-0.001l0.142-94.154 0 0.001v0.001l0 0v0.001l0 0 -2.009 0.043 0-0.001h0.002 0.013c0.019-0.001 0.041-0.002 0.064-0.003 0.096-0.004 0.234-0.01 0.399-0.017 0.331-0.014 0.771-0.032 1.211-0.051l0.329-0.014 0.161-0.007c0.053-0.005 0.105-0.018 0.16 0.056 0.216 0.205 0.417 0.397 0.589 0.562 0.345 0.328 0.575 0.547 0.575 0.547L175.37 182.852z"/><path fill="#E9495C" d="M178.835 182.573c0 0-0.571 0.054-1.427 0.134 -0.427 0.035-0.926 0.076-1.46 0.12 -0.206 0.009-0.426 0.019-0.646 0.027 -0.881 0.037-1.761 0.074-1.761 0.074l-4.018-94.068c0 0 0.22-0.01 0.55-0.023 0.042 0.01 0.083-0.029 0.13 0.02l0.144 0.138c0.099 0.094 0.203 0.193 0.311 0.296 0.216 0.205 0.446 0.424 0.675 0.643 0.23 0.22 0.46 0.438 0.676 0.644 -0.1 0.18-0.193 0.347-0.273 0.49 -0.15 0.296-0.25 0.493-0.25 0.493L178.835 182.573z"/><path fill="#E9485C" d="M183.217 182.058c0 0-2.275 0.313-4.56 0.533 -0.571 0.053-1.142 0.104-1.677 0.153 -0.497 0.042-1.166 0.097-1.197 0.09 -0.331 0.015-0.551 0.023-0.551 0.023l-3.971-92.992c0 0 0.23 0.219 0.575 0.547 0.302 0.176 0.04 0.325-0.022 0.51 -0.095 0.184-0.196 0.38-0.298 0.576 -0.395 0.794-0.673 1.664-0.673 1.664L183.217 182.058z"/><path fill="#E9485C" d="M187.301 181.383c0 0-0.469 0.096-1.172 0.238 -0.787 0.139-1.963 0.308-3.087 0.46 -2.274 0.311-4.559 0.527-4.559 0.527l-6.938-91.171c0 0-0.399 0.792-0.681 1.658 -0.134 0.423-0.287 0.895-0.318 1.195 0.035 0.248 0.059 0.413 0.059 0.413L187.301 181.383z"/><path fill="#E9475D" d="M190.898 180.595c0 0-1.866 0.434-3.742 0.818 -0.487 0.096-0.896 0.192-1.419 0.276 -0.531 0.08-1.026 0.154-1.451 0.219 -0.852 0.118-1.419 0.196-1.419 0.196l-11.979-89.075c0 0-0.069 0.218-0.171 0.544 -0.044 0.166-0.097 0.36-0.152 0.568 -0.046 0.207 0.022 0.333 0.034 0.512 0.098 0.663 0.27 1.355 0.27 1.355L190.898 180.595z"/><path fill="#E9475D" d="M194.491 179.694c0 0-0.483 0.161-1.174 0.321 -0.698 0.167-1.63 0.39-2.561 0.611 -1.867 0.433-3.743 0.815-3.743 0.815l-16.423-86.841c0 0 0.095 0.663 0.265 1.354 0.166 0.694 0.406 1.406 0.371 1.351L194.491 179.694z"/><path fill="#E9465D" d="M198.139 178.541c0 0-1.891 0.627-3.795 1.197 -0.948 0.279-1.863 0.475-2.566 0.65 -0.7 0.163-1.166 0.271-1.166 0.271l-19.77-84.757c0 0 0.043 0.173 0.109 0.433 0.072 0.254 0.169 0.592 0.265 0.93 0.118 0.534 0.307 1.096 0.307 1.096L198.139 178.541z"/><path fill="#E9465E" d="M201.756 177.296c0 0-1.871 0.674-3.763 1.294 -1.891 0.624-3.796 1.193-3.796 1.193l-22.991-82.56c0 0 0.116 0.534 0.302 1.095 0.179 0.559 0.433 1.138 0.432 1.138L201.756 177.296z"/><path fill="#E9455E" d="M205.401 175.752c0 0-1.887 0.84-3.789 1.597 -1.873 0.671-3.767 1.289-3.767 1.289l-26.351-80.362c0 0 0.176 0.558 0.428 1.138 0.14 0.427 0.319 0.845 0.319 0.845L205.401 175.752z"/><path fill="#E9455E" d="M209 174.109c0 0-1.858 0.882-3.746 1.707 -0.946 0.404-1.893 0.809-2.603 1.111 -0.356 0.146-0.654 0.27-0.862 0.354 -0.205 0.075-0.322 0.118-0.322 0.118l-29.564-78.032c0.036 0.051 0.13 0.416 0.323 0.856 0.179 0.427 0.426 0.875 0.426 0.875L209 174.109z"/><path fill="#E9445F" d="M212.564 172.181c0 0-0.461 0.258-1.154 0.645 -0.693 0.372-1.626 0.914-2.556 1.353 -1.858 0.88-3.748 1.703-3.747 1.703l-32.895-75.689c0 0 0.176 0.426 0.421 0.873 0.174 0.356 0.291 0.595 0.306 0.613L212.564 172.181z"/><path fill="#E9435F" d="M216.074 170.129c0 0-1.807 1.097-3.653 2.132 -0.926 0.51-1.853 1.019-2.548 1.401 -0.699 0.387-1.163 0.584-1.163 0.583l-36.094-73.216c-0.01-0.013 0.086 0.146 0.116 0.229 0.047 0.104 0.115 0.247 0.196 0.396 0.157 0.296 0.376 0.615 0.376 0.615L216.074 170.129z"/><path fill="#E9435F" d="M219.492 167.811c0 0-0.441 0.31-1.103 0.774 -0.667 0.446-1.549 1.104-2.457 1.629 -1.808 1.095-3.655 2.128-3.655 2.128l-39.362-70.71c0 0 0.154 0.296 0.371 0.613 0.121 0.19 0.241 0.38 0.241 0.38L219.492 167.811z"/><path fill="#E9425F" d="M222.834 165.359c0 0-1.716 1.304-3.479 2.548 -0.886 0.613-1.773 1.227-2.438 1.687 -0.333 0.232-0.616 0.397-0.814 0.518 -0.198 0.119-0.311 0.188-0.311 0.188l-42.522-68.078c-0.012-0.015 0.081 0.112 0.11 0.166 0.032 0.058 0.08 0.138 0.138 0.225 0.113 0.173 0.28 0.371 0.28 0.371L222.834 165.359z"/><path fill="#E94260" d="M226.032 162.667c0 0-0.411 0.358-1.027 0.896 -0.625 0.521-1.435 1.27-2.304 1.896 -1.717 1.303-3.483 2.544-3.483 2.544l-45.709-65.406c0 0 0.111 0.172 0.276 0.369l0.062 0.073 0.011 0.018 0.021 0.03c0.017 0.021 0.028 0.035 0.028 0.035L226.032 162.667z"/><path fill="#E94160" d="M229.13 159.847c0 0-1.585 1.494-3.225 2.932 -0.826 0.71-1.652 1.42-2.271 1.952 -0.627 0.52-1.064 0.829-1.064 0.829l-48.797-62.607c0 0 0.033 0.039 0.082 0.098 0.013 0.019 0.031 0.044 0.049 0.069 0.046 0.06 0.138 0.15 0.138 0.15L229.13 159.847z"/><path fill="#E94160" d="M232.034 156.822c0 0-0.371 0.4-0.927 1.001 -0.568 0.589-1.29 1.411-2.099 2.139 -1.586 1.491-3.229 2.927-3.229 2.927L173.9 103.114c0 0 0.044 0.059 0.135 0.148l0.034 0.034 -0.017-0.017 -0.034-0.033c-0.017-0.015-0.027-0.024-0.027-0.024L232.034 156.822z"/><path fill="#E94061" d="M234.82 153.684c0 0-1.419 1.657-2.9 3.263 -0.747 0.795-1.494 1.59-2.055 2.187 -0.572 0.582-0.979 0.943-0.98 0.943l-54.857-56.82c0 0 0.014 0.015 0.036 0.035 -0.019-0.018-0.044-0.042-0.069-0.065 -0.042-0.036-0.046-0.034-0.046-0.034L234.82 153.684z"/><path fill="#E84061" d="M237.374 150.387c0 0-0.324 0.435-0.81 1.086 -0.5 0.644-1.121 1.522-1.853 2.337 -1.421 1.656-2.905 3.261-2.905 3.261l-57.809-53.843 -0.298-0.235L237.374 150.387z"/><path fill="#E83F61" d="M239.795 146.998c0 0-1.229 1.784-2.521 3.524 -0.654 0.863-1.308 1.727-1.798 2.374 -0.506 0.637-0.875 1.042-0.875 1.042l-60.652-50.747c-0.01-0.009 0.019 0.019-0.023-0.018 -0.059-0.047-0.136-0.11-0.214-0.173 -0.149-0.112-0.266-0.177-0.267-0.177L239.795 146.998z"/><path fill="#E83E61" d="M241.958 143.509c0 0-0.272 0.458-0.681 1.145 -0.421 0.684-0.939 1.599-1.579 2.483 -1.23 1.782-2.525 3.521-2.525 3.521l-63.451-47.648c0 0-0.15-0.113-0.269-0.18 -0.24-0.155-0.48-0.311-0.48-0.311L241.958 143.509z"/><path fill="#E83E62" d="M243.98 139.947c0 0-1.021 1.87-2.107 3.704 -0.55 0.912-1.101 1.823-1.514 2.507 -0.437 0.675-0.756 1.117-0.756 1.117l-66.14-44.44c0 0-0.234-0.151-0.469-0.303 -0.271-0.165-0.513-0.273-0.513-0.274L243.98 139.947z"/><path fill="#E83D62" d="M245.743 136.339c0 0-0.219 0.472-0.547 1.179 -0.333 0.706-0.76 1.642-1.295 2.575 -1.023 1.868-2.111 3.702-2.111 3.702l-68.774-41.25c0 0-0.272-0.167-0.515-0.278 -0.362-0.184-0.724-0.368-0.724-0.368L245.743 136.339z"/><path fill="#E83D62" d="M247.357 132.684c0 0-0.81 1.915-1.681 3.803 -0.444 0.939-0.887 1.879-1.22 2.583 -0.381 0.701-0.635 1.168-0.635 1.168l-71.301-37.961c0 0-0.062-0.028-0.153-0.07 -0.155-0.088-0.359-0.197-0.559-0.292 -0.401-0.195-0.776-0.326-0.776-0.326L247.357 132.684z"/><path fill="#E83C63" d="M248.729 129.026c0 0-0.166 0.476-0.415 1.188 -0.127 0.355-0.276 0.77-0.435 1.213 -0.187 0.448-0.386 0.927-0.586 1.405 -0.812 1.913-1.686 3.801-1.686 3.801l-73.769-34.705c0 0-0.402-0.197-0.778-0.33 -0.095-0.033-0.191-0.067-0.281-0.099 -0.127-0.054-0.246-0.104-0.348-0.146 -0.201-0.077-0.335-0.129-0.335-0.129L248.729 129.026z"/><path fill="#E83C63" d="M249.943 125.351c0 0-0.604 1.922-1.265 3.824 -0.335 0.954-0.653 1.896-0.943 2.611 -0.303 0.717-0.505 1.195-0.505 1.195l-76.14-31.372c0 0-0.093-0.032-0.233-0.081 -0.196-0.079-0.458-0.184-0.719-0.288 -0.536-0.203-1.045-0.335-1.045-0.335L249.943 125.351z"/><path fill="#E83B63" d="M250.954 121.699c0 0-0.116 0.471-0.291 1.177 -0.156 0.695-0.465 1.665-0.768 2.624 -0.605 1.921-1.269 3.823-1.269 3.823l-78.447-28.067c0 0-0.537-0.205-1.047-0.34 -0.436-0.095-1.213-0.348-1.188-0.331L250.954 121.699z"/><path fill="#E83B63" d="M251.791 118.064c0 0-0.41 1.896-0.872 3.779 -0.414 1.865-1.069 3.803-1.069 3.803l-80.678-24.72c0 0-0.127-0.032-0.317-0.082 -0.151-0.022-0.533-0.158-0.858-0.245 -0.67-0.19-1.313-0.306-1.313-0.306L251.791 118.064z"/><path fill="#E83A64" d="M252.478 114.453c0 0-0.07 0.46-0.176 1.149 -0.133 0.706-0.337 1.66-0.543 2.606 -0.412 1.896-0.875 3.78-0.875 3.78l-82.835-21.375c0 0-0.672-0.193-1.316-0.311 -0.327-0.063-0.63-0.103-0.883-0.142 -0.301-0.062-0.502-0.104-0.502-0.104L252.478 114.453z"/><path fill="#E83964" d="M252.97 110.908c0 0-0.234 1.848-0.514 3.688 -0.12 0.907-0.32 1.86-0.474 2.574 -0.153 0.711-0.256 1.186-0.256 1.186l-84.944-18.043c0 0-0.16-0.029-0.401-0.071 -0.119-0.018-0.257-0.038-0.406-0.061 -0.141-0.016-0.377-0.078-0.566-0.111 -0.802-0.162-1.575-0.245-1.575-0.245L252.97 110.908z"/><path fill="#E83964" d="M253.375 107.366c0 0-0.008 0.111-0.021 0.307 -0.022 0.202-0.055 0.491-0.093 0.838 -0.084 0.692-0.196 1.617-0.309 2.541 -0.236 1.848-0.517 3.688-0.517 3.688l-86.963-14.657c0 0-0.803-0.164-1.577-0.25 -0.79-0.1-1.494-0.099-1.548-0.126L253.375 107.366z"/><path fill="#E83865" d="M253.561 103.945c0 0-0.098 1.779-0.195 3.559 -0.185 1.839-0.433 3.691-0.433 3.691l-88.979-11.356c0 0.001-0.765-0.089-1.536-0.123 -0.928-0.12-1.825-0.159-1.825-0.159L253.561 103.945z"/><path fill="#E83865" d="M253.683 100.523c0 0-0.064 1.781-0.128 3.562 -0.099 1.779-0.198 3.558-0.198 3.558l-90.867-7.919c0 0-0.929-0.121-1.826-0.163 -0.223-0.009-0.446-0.017-0.656-0.024 -0.179-0.002-0.346-0.004-0.489-0.005 0.009 0.007 0.014 0.012 0.014 0.012L253.683 100.523z"/><path fill="#E83765" d="M253.706 98.339c0 0 0 0.221 0 0.551 0 0.165 0 0.358 0 0.564 -0.008 0.386-0.018 0.796-0.026 1.207 -0.066 1.781-0.131 3.562-0.131 3.562l-92.814-4.659c0 0-0.224-0.009-0.56-0.023 -0.166-0.003-0.36-0.007-0.567-0.01 -0.155-0.002-0.061 0.003-0.084 0.004l0.009 0.008 0.011 0.007c0.003-0.014 0.011 0.058 0.009-0.095 0-0.206 0-0.399 0-0.564 0-0.33 0-0.551 0-0.551H253.706z"/><path fill="#E83765" d="M253.706 96.645c0 0 0 0.882 0 1.763 -0.001 0.466-0.002 0.931-0.002 1.279 -0.017 0.668-0.028 1.113-0.028 1.113l-94.146-1.26c0 0 0.008 0.005 0.019 0.013 0.001-0.312 0.002-0.729 0.003-1.146 0-0.881 0-1.763 0-1.763H253.706z"/><rect x="159.552" y="94.95" fill="#E83666" width="94.154" height="3.526"/><rect x="159.552" y="93.256" fill="#E83566" width="94.154" height="3.526"/><rect x="159.552" y="91.562" fill="#E83566" width="94.154" height="3.526"/><rect x="159.552" y="89.867" fill="#E83466" width="94.154" height="3.526"/><rect x="159.552" y="88.173" fill="#E83467" width="94.154" height="3.526"/><rect x="159.552" y="86.479" fill="#E83367" width="94.154" height="3.526"/><rect x="159.552" y="84.783" fill="#E83267" width="94.154" height="3.527"/><rect x="159.552" y="83.089" fill="#E83267" width="94.154" height="3.526"/><rect x="159.552" y="81.395" fill="#E83168" width="94.154" height="3.526"/><rect x="159.552" y="79.7" fill="#E83168" width="94.154" height="3.526"/><rect x="159.552" y="78.006" fill="#E83068" width="94.154" height="3.526"/><rect x="159.552" y="76.312" fill="#E72F68" width="94.154" height="3.525"/><rect x="159.552" y="74.617" fill="#E72F69" width="94.154" height="3.527"/><rect x="159.552" y="72.923" fill="#E72E69" width="94.154" height="3.526"/><rect x="159.552" y="71.229" fill="#E72D69" width="94.154" height="3.525"/><rect x="159.552" y="69.535" fill="#E72C69" width="94.154" height="3.526"/><rect x="159.552" y="67.841" fill="#E72C69" width="94.154" height="3.525"/><rect x="159.552" y="66.146" fill="#E72B6A" width="94.154" height="3.525"/><rect x="159.552" y="64.452" fill="#E72A6A" width="94.154" height="3.524"/><rect x="159.552" y="62.756" fill="#E72A6A" width="94.154" height="3.526"/><rect x="159.552" y="61.062" fill="#E7296A" width="94.154" height="3.526"/><rect x="159.552" y="59.368" fill="#E7286B" width="94.154" height="3.525"/><rect x="159.552" y="57.674" fill="#E7276B" width="94.154" height="3.525"/><rect x="159.552" y="55.979" fill="#E7276B" width="94.154" height="3.525"/><rect x="159.552" y="54.285" fill="#E7266B" width="94.154" height="3.525"/><rect x="159.552" y="52.591" fill="#E7256B" width="94.154" height="3.525"/><rect x="159.552" y="50.896" fill="#E7246C" width="94.154" height="3.526"/><rect x="159.552" y="49.202" fill="#E7236C" width="94.154" height="3.525"/><rect x="159.552" y="47.508" fill="#E7226C" width="94.154" height="3.525"/><rect x="159.552" y="45.813" fill="#E7216C" width="94.154" height="3.526"/><rect x="159.552" y="44.119" fill="#E7216D" width="94.154" height="3.524"/><rect x="159.552" y="42.424" fill="#E7206D" width="94.154" height="3.525"/><rect x="159.552" y="40.729" fill="#E71F6D" width="94.154" height="3.525"/><rect x="159.552" y="39.035" fill="#E71E6D" width="94.154" height="3.525"/><rect x="159.552" y="37.341" fill="#E61D6D" width="94.154" height="3.525"/><rect x="159.552" y="35.646" fill="#E61C6E" width="94.154" height="3.525"/><rect x="159.552" y="33.952" fill="#E61A6E" width="94.154" height="3.525"/><rect x="159.552" y="32.258" fill="#E6196E" width="94.154" height="3.525"/><rect x="159.552" y="30.563" fill="#E6186E" width="94.154" height="3.525"/><rect x="159.552" y="28.87" fill="#E6176E" width="94.154" height="3.525"/><rect x="159.552" y="27.175" fill="#E6156E" width="94.154" height="3.526"/><rect x="159.552" y="25.48" fill="#E6146F" width="94.154" height="3.526"/><rect x="159.552" y="23.786" fill="#E6126F" width="94.154" height="3.524"/><rect x="159.552" y="22.091" fill="#E6116F" width="94.154" height="3.526"/><rect x="159.552" y="20.396" fill="#E60F6F" width="94.154" height="3.525"/><rect x="159.552" y="18.702" fill="#E60D6F" width="94.154" height="3.525"/><rect x="159.552" y="17.008" fill="#E60B70" width="94.154" height="3.526"/><rect x="159.552" y="15.313" fill="#E60970" width="94.154" height="3.526"/><rect x="159.552" y="13.619" fill="#E60770" width="94.154" height="3.526"/><rect x="159.552" y="11.925" fill="#E60470" width="94.154" height="3.526"/><rect x="159.552" y="10.23" fill="#E60270" width="94.154" height="3.526"/><rect x="159.552" y="8.536" fill="#E60070" width="94.154" height="3.526"/><rect x="159.552" y="6.842" fill="#E60070" width="94.154" height="3.526"/><rect x="159.552" y="5.148" fill="#E60071" width="94.154" height="3.526"/><rect x="159.552" y="3.452" fill="#E60071" width="94.154" height="3.527"/><rect x="159.552" y="1.758" fill="#E60071" width="94.154" height="3.526"/><rect x="159.552" y="0.064" fill="#E60071" width="94.154" height="3.525"/><rect x="159.552" y="-1.63" fill="#E60071" width="94.154" height="3.526"/><rect x="159.552" y="-3.325" fill="#E50071" width="94.154" height="3.526"/><rect x="159.552" y="-5.019" fill="#E50071" width="94.154" height="3.526"/><rect x="159.552" y="-6.713" fill="#E50071" width="94.154" height="3.526"/></g></g><g id="_x0022_B"><path d="M0 1.059h46.14c25.292 0 37.027 2.429 47.953 14.57 6.681 6.878 8.906 15.983 8.906 24.689 0 11.527-5.264 23.268-17.405 30.148 24.083 8.486 24.686 28.519 24.686 34.807 0 11.937-4.653 25.089-13.755 32.571 -13.758 11.537-23.676 12.948-48.97 12.948H0V1.059zM36.623 57.915h13.561c5.264 0 16.187 0 16.187-11.934 0-11.335-10.316-11.335-16.187-11.335H36.623V57.915zM36.623 117.21h18.011c4.862 0 19.025 0 19.025-14.368 0-12.959-12.957-12.959-19.025-12.959H36.623V117.21z"/></g></svg>