<?xml version="1.0" encoding="utf-8"?>
<!-- Generator: Adobe Illustrator 21.1.0, SVG Export Plug-In . SVG Version: 6.00 Build 0)  -->
<svg version="1.1" id="Layer_1" xmlns="http://www.w3.org/2000/svg" xmlns:xlink="http://www.w3.org/1999/xlink" x="0px" y="0px"
	 viewBox="0 0 70 90.6" style="enable-background:new 0 0 70 90.6;" xml:space="preserve">
<style type="text/css">
	.st0{clip-path:url(#SVGID_2_);}
	.st1{fill:#F47834;}
	.st2{fill:#F47835;}
	.st3{fill:#F47736;}
	.st4{fill:#F47737;}
	.st5{fill:#F47638;}
	.st6{fill:#F47639;}
	.st7{fill:#F4753A;}
	.st8{fill:#F4753B;}
	.st9{fill:#F4743C;}
	.st10{fill:#F4743D;}
	.st11{fill:#F3743D;}
	.st12{fill:#F3733E;}
	.st13{fill:#F3733F;}
	.st14{fill:#F37240;}
	.st15{fill:#F37241;}
	.st16{fill:#F37142;}
	.st17{fill:#F37143;}
	.st18{fill:#F37044;}
	.st19{fill:#F36F45;}
	.st20{fill:#F36F46;}
	.st21{fill:#F36E47;}
	.st22{fill:#F36E48;}
	.st23{fill:#F36D48;}
	.st24{fill:#F36D49;}
	.st25{fill:#F36C4A;}
	.st26{fill:#F36C4B;}
	.st27{fill:#F26B4B;}
	.st28{fill:#F26B4C;}
	.st29{fill:#F26B4D;}
	.st30{fill:#F26A4D;}
	.st31{fill:#F26A4E;}
	.st32{fill:#F2694E;}
	.st33{fill:#F2694F;}
	.st34{fill:#F26850;}
	.st35{fill:#F26751;}
	.st36{fill:#F26752;}
	.st37{fill:#F26652;}
	.st38{fill:#F26653;}
	.st39{fill:#F26553;}
	.st40{fill:#F16454;}
	.st41{fill:#F16455;}
	.st42{fill:#F16355;}
	.st43{fill:#F16356;}
	.st44{fill:#F16256;}
	.st45{fill:#F16257;}
	.st46{fill:#F16157;}
	.st47{fill:#F16158;}
	.st48{fill:#F16058;}
	.st49{fill:#F16059;}
	.st50{fill:#F15F59;}
	.st51{fill:#F15F5A;}
	.st52{fill:#F15E5B;}
	.st53{fill:#F15D5B;}
	.st54{fill:#F15D5C;}
	.st55{fill:#F15C5C;}
	.st56{fill:#F15C5D;}
	.st57{fill:#F15B5D;}
	.st58{fill:#F15B5E;}
	.st59{fill:#F15A5E;}
	.st60{fill:#F1595F;}
	.st61{fill:#F0595F;}
	.st62{fill:#F05860;}
	.st63{fill:#F05760;}
	.st64{fill:#F05761;}
	.st65{fill:#F05661;}
	.st66{fill:#F05562;}
	.st67{fill:#F05462;}
	.st68{fill:#F05463;}
	.st69{fill:#F05363;}
	.st70{fill:#F05264;}
	.st71{fill:#F05164;}
	.st72{fill:#F05165;}
	.st73{fill:#F05065;}
	.st74{fill:#F04F66;}
	.st75{fill:#F04E66;}
	.st76{fill:#F04E67;}
	.st77{fill:#EF4D67;}
	.st78{fill:#EF4C68;}
	.st79{fill:#EF4B68;}
	.st80{fill:#EF4B69;}
	.st81{fill:#EF4A69;}
	.st82{fill:#EF4969;}
	.st83{fill:#EF496A;}
	.st84{fill:#EF486A;}
	.st85{fill:#EF476B;}
	.st86{fill:#EF466B;}
	.st87{fill:#EF456B;}
	.st88{fill:#EF456C;}
	.st89{fill:#EF446C;}
	.st90{fill:#EF436D;}
	.st91{fill:#EF426D;}
	.st92{fill:#EF416E;}
	.st93{fill:#EF406E;}
	.st94{fill:#EF3F6F;}
	.st95{fill:#EF3E6F;}
	.st96{fill:#EE3D6F;}
	.st97{fill:#EE3D70;}
	.st98{fill:#EE3C70;}
	.st99{fill:#EE3B70;}
	.st100{fill:#EE3B71;}
	.st101{fill:#EE3A71;}
	.st102{fill:#EE3971;}
	.st103{fill:#EE3872;}
	.st104{fill:#EE3772;}
	.st105{fill:#EE3672;}
	.st106{fill:#EE3573;}
	.st107{fill:#EE3473;}
	.st108{fill:#EE3374;}
	.st109{fill:#EE3274;}
	.st110{fill:#EE3174;}
	.st111{fill:#EE3074;}
	.st112{fill:#EE2F75;}
	.st113{fill:#EE2E75;}
	.st114{fill:#EE2D75;}
	.st115{fill:#EE2C75;}
	.st116{fill:#EE2C76;}
	.st117{fill:#EE2B76;}
	.st118{fill:#EE2A76;}
	.st119{fill:#EE2976;}
	.st120{fill:#ED2877;}
	.st121{fill:#ED2777;}
	.st122{fill:#ED2677;}
	.st123{fill:#ED2577;}
	.st124{fill:#ED2477;}
	.st125{fill:#ED2378;}
	.st126{fill:#ED2278;}
	.st127{fill:#ED2078;}
	.st128{fill:#ED1F78;}
	.st129{fill:#ED1E79;}
	.st130{fill:#ED1D79;}
	.st131{fill:#ED1C79;}
	.st132{fill:#ED1A79;}
	.st133{fill:#ED1979;}
	.st134{fill:#ED177A;}
	.st135{fill:#ED167A;}
	.st136{fill:#ED147A;}
	.st137{fill:#ED137A;}
	.st138{fill:#ED117A;}
	.st139{fill:#ED0F7B;}
	.st140{fill:#ED0D7B;}
	.st141{fill:#ED0B7B;}
</style>
<desc>Logo of Bournemouth University</desc>
<g>
	<g>
		<defs>
			<path id="SVGID_1_" d="M52.3,3.2v54.5c0,10.4-6.8,17.2-17.3,17.2l0,0c-10.5,0-17.3-6.7-17.3-17.2l0,0V15.1h1.5v42.7
				c0,9.5,6.2,15.7,15.9,15.7l0,0c9.6,0,15.9-6.2,15.9-15.7l0,0V15.1H45v42.7c0,6-3.2,9.8-10,9.8l0,0c-6.7,0-10-3.8-10-9.8l0,0V9.1
				H11.8v47c0,15,8.7,24,23.2,24l0,0c14.5,0,23.2-9,23.2-24l0,0V9.2h1.5v46.9c0,15.9-9.2,25.4-24.7,25.4l0,0
				c-15.4,0-24.7-9.5-24.7-25.4l0,0V3.2H4.4v52.9C4.4,75,16,87.4,35,87.4l0,0c19,0,30.6-12.4,30.6-31.3l0,0V3.2L52.3,3.2L52.3,3.2
				L52.3,3.2z"/>
		</defs>
		<clipPath id="SVGID_2_">
			<use xlink:href="#SVGID_1_"  style="overflow:visible;"/>
		</clipPath>
		<g id="svg_1" class="st0">
			<path id="path196" class="st1" d="M0.3,1.7h29.4v1.9H0.3V1.7z"/>
			<path id="path198" class="st2" d="M0.3,2.7h29.4v1.9H0.3C0.3,4.6,0.3,2.7,0.3,2.7z"/>
			<path id="path200" class="st2" d="M0.3,3.6h29.4v1.9H0.3C0.3,5.5,0.3,3.6,0.3,3.6z"/>
			<path id="path202" class="st3" d="M0.3,4.5h29.4v1.9H0.3V4.5z"/>
			<path id="path204" class="st4" d="M0.3,5.5h29.4v1.9H0.3C0.3,7.4,0.3,5.5,0.3,5.5z"/>
			<path id="path206" class="st4" d="M0.3,6.4h29.4v1.9H0.3C0.3,8.4,0.3,6.4,0.3,6.4z"/>
			<path id="path208" class="st5" d="M0.3,7.3h29.4v1.9H0.3V7.3z"/>
			<path id="path210" class="st6" d="M0.3,8.3h29.4v1.9H0.3V8.3z"/>
			<path id="path212" class="st6" d="M0.3,9.2h29.4v1.9H0.3C0.3,11.2,0.3,9.2,0.3,9.2z"/>
			<path id="path214" class="st7" d="M0.3,10.1h29.4v1.9H0.3V10.1z"/>
			<path id="path216" class="st8" d="M0.3,11.1h29.4V13H0.3V11.1z"/>
			<path id="path218" class="st8" d="M0.3,12h29.4V14H0.3V12z"/>
			<path id="path220" class="st9" d="M0.3,12.9h29.4v1.9H0.3V12.9z"/>
			<path id="path222" class="st10" d="M0.3,13.9h29.4v1.9H0.3V13.9z"/>
			<path id="path224" class="st11" d="M0.3,14.8h29.4v1.9H0.3V14.8z"/>
			<path id="path226" class="st12" d="M0.3,15.8h29.4v1.9H0.3V15.8z"/>
			<path id="path228" class="st12" d="M0.3,16.7h29.4v1.9H0.3V16.7z"/>
			<path id="path230" class="st13" d="M0.3,17.6h29.4v1.9H0.3C0.3,19.6,0.3,17.6,0.3,17.6z"/>
			<path id="path232" class="st14" d="M0.3,18.6h29.4v1.9H0.3V18.6z"/>
			<path id="path234" class="st15" d="M0.3,19.5h29.4v1.9H0.3V19.5z"/>
			<path id="path236" class="st15" d="M0.3,20.4h29.4v1.9H0.3V20.4z"/>
			<path id="path238" class="st16" d="M0.3,21.4h29.4v1.9H0.3V21.4z"/>
			<path id="path240" class="st16" d="M0.3,22.3h29.4v1.9H0.3V22.3z"/>
			<path id="path242" class="st17" d="M0.3,23.2h29.4v1.9H0.3V23.2z"/>
			<path id="path244" class="st18" d="M0.3,24.2h29.4v1.9H0.3V24.2z"/>
			<path id="path246" class="st18" d="M0.3,25.1h29.4V27H0.3V25.1z"/>
			<path id="path248" class="st19" d="M0.3,26h29.4V28H0.3V26z"/>
			<path id="path250" class="st19" d="M0.3,27h29.4v1.9H0.3V27z"/>
			<path id="path252" class="st20" d="M0.3,27.9h29.4v1.9H0.3V27.9z"/>
			<path id="path254" class="st21" d="M0.3,28.8h29.4v1.9H0.3V28.8z"/>
			<path id="path256" class="st21" d="M0.3,29.8h29.4v1.9H0.3V29.8z"/>
			<path id="path258" class="st22" d="M0.3,30.7h29.4v1.9H0.3V30.7z"/>
			<path id="path260" class="st23" d="M0.3,31.6h29.4v1.9H0.3V31.6z"/>
			<path id="path262" class="st24" d="M0.3,32.6h29.4v1.9H0.3V32.6z"/>
			<path id="path264" class="st24" d="M0.3,33.5h29.4v1.9H0.3V33.5z"/>
			<path id="path266" class="st25" d="M0.3,34.4h29.4v1.9H0.3V34.4z"/>
			<path id="path268" class="st25" d="M0.3,35.4h29.4v1.9H0.3V35.4z"/>
			<path id="path270" class="st26" d="M0.3,36.3h29.4v1.9H0.3V36.3z"/>
			<path id="path272" class="st27" d="M0.3,37.3h29.4v1.9H0.3V37.3z"/>
			<path id="path274" class="st28" d="M0.3,38.2h29.4v1.9H0.3V38.2z"/>
			<path id="path276" class="st29" d="M0.3,39.1h29.4v1.9H0.3V39.1z"/>
			<path id="path278" class="st30" d="M0.3,40.1h29.4V42H0.3V40.1z"/>
			<path id="path280" class="st31" d="M0.3,41h29.4v1.9H0.3V41z"/>
			<path id="path282" class="st32" d="M0.3,41.9h29.4v1.9H0.3V41.9z"/>
			<path id="path284" class="st33" d="M0.3,42.9h29.4v1.9H0.3V42.9z"/>
			<path id="path286" class="st33" d="M0.3,43.8h29.4v1.9H0.3V43.8z"/>
			<path id="path288" class="st34" d="M0.3,44.7h29.4v1.9H0.3V44.7z"/>
			<path id="path290" class="st34" d="M0.3,45.7h29.4v1.9H0.3V45.7z"/>
			<path id="path292" class="st35" d="M0.3,46.6h29.4v1.9H0.3V46.6z"/>
			<path id="path294" class="st35" d="M0.3,47.5h29.4v1.9H0.3V47.5z"/>
			<path id="path296" class="st36" d="M0.3,48.5h29.4v1.9H0.3V48.5z"/>
			<path id="path298" class="st37" d="M0.3,49.4h29.4v1.9H0.3V49.4z"/>
			<path id="path300" class="st38" d="M0.3,50.3h29.4v1.9H0.3V50.3z"/>
			<path id="path302" class="st39" d="M0.3,51.3h29.4v1.9H0.3V51.3z"/>
			<path id="path304" class="st39" d="M0.3,52.2h29.4v1.9H0.3V52.2z"/>
			<path id="path306" class="st40" d="M0.3,53.1h29.4v1.9H0.3V53.1z"/>
			<path id="path308" class="st40" d="M0.3,54.1h29.4V56H0.3V54.1z"/>
			<path id="path310" class="st41" d="M0.3,55h29.4V57H0.3V55z"/>
			<path id="path314" class="st42" d="M0.3,58.1c-0.1-1,0-1.4,0-2.1h29.4c0,0.6,0,1.5,0,1.8L0.3,58.1"/>
			<path id="path318" class="st43" d="M0.4,59.6c-0.1-1-0.2-2.2-0.1-2.7h29.4c0,0.8,0.1,0.9,0.1,1.2L0.4,59.6"/>
			<path id="path322" class="st43" d="M0.5,61.1L0.3,58l29.4-0.3l0.1,0.8L0.5,61.1z"/>
			<path id="path326" class="st44" d="M0.7,62.6l-0.3-3.1L29.8,58l0.1,0.8L0.7,62.6L0.7,62.6z"/>
			<path id="path330" class="st45" d="M0.8,64.1L0.5,61l29.3-2.5l0,0.8L0.8,64.1L0.8,64.1L0.8,64.1z"/>
			<path id="path334" class="st46" d="M1.2,65.6c-0.3-1.1-0.4-2.1-0.5-3.1l29.2-3.7c0,0.2,0,0.6,0.1,0.7L1.2,65.6"/>
			<path id="path338" class="st47" d="M1.6,67.1c-0.3-1.1-0.6-2.2-0.7-3.2l29-4.8c0,0.3,0.2,0.4,0.2,0.6L1.6,67.1"/>
			<path id="path342" class="st47" d="M2,68.7l-0.9-3.2l28.8-6l0.2,0.5L2,68.7L2,68.7C2,68.7,2,68.7,2,68.7z"/>
			<path id="path346" class="st48" d="M2.4,70.2L1.5,67L30,59.7l0.1,0.6L2.4,70.2L2.4,70.2L2.4,70.2L2.4,70.2z"/>
			<path id="path350" class="st49" d="M3,71.7c-0.5-1-0.7-2.1-1.1-3.2L30.1,60c0.1,0.2,0,0.4,0.1,0.5L3,71.7"/>
			<path id="path354" class="st50" d="M3.7,73.2c-0.5-1-1.1-2.1-1.3-3.1l27.7-9.8c0,0.2,0.1,0.3,0.2,0.4L3.7,73.2"/>
			<path id="path358" class="st51" d="M4.5,74.7L3,71.6l27.3-11.1l0.2,0.3L4.5,74.7C4.5,74.7,4.5,74.7,4.5,74.7z"/>
			<path id="path362" class="st51" d="M5.3,76.2l-1.6-3.1l26.7-12.4l0.2,0.4L5.3,76.2C5.3,76.2,5.3,76.2,5.3,76.2z"/>
			<path id="path366" class="st52" d="M6.1,77.6c-0.7-1-1.2-2-1.7-3l26-13.7l0.1,0.4L6.1,77.6"/>
			<path id="path370" class="st52" d="M7.2,79c-0.7-0.9-1.5-1.9-2-2.9l25.3-15c0,0.2,0.1,0.2,0.2,0.3L7.2,79"/>
			<path id="path374" class="st53" d="M8.3,80.3l-2.2-2.8l24.5-16.3l0.3,0.2L8.3,80.3L8.3,80.3L8.3,80.3L8.3,80.3z"/>
			<path id="path378" class="st54" d="M9.4,81.6l-2.3-2.8l23.6-17.6l0.2,0.3L9.4,81.6z"/>
			<path id="path382" class="st54" d="M10.5,82.8c-0.9-0.8-1.6-1.8-2.4-2.7l22.6-18.8l0.2,0.3L10.5,82.8"/>
			<path id="path386" class="st55" d="M11.8,84c-0.9-0.8-1.8-1.5-2.6-2.5l21.6-20c0,0.1,0.1,0.2,0.2,0.2L11.8,84"/>
			<path id="path390" class="st56" d="M13.2,85l-2.7-2.3L31,61.7l0.3,0.2L13.2,85z"/>
			<path id="path394" class="st57" d="M14.5,86.1l-2.8-2.2l19.4-22.1l0.3,0.2L14.5,86.1L14.5,86.1L14.5,86.1L14.5,86.1z"/>
			<path id="path398" class="st57" d="M15.9,87c-1-0.6-1.9-1.4-2.8-2.1l18.2-23.1l0.2,0.3L15.9,87"/>
			<path id="path402" class="st58" d="M17.4,87.8c-1-0.5-2-1.1-3-1.8l17-24c0,0.1,0.2,0.2,0.3,0.2L17.4,87.8"/>
			<path id="path406" class="st59" d="M18.8,88.6L15.8,87l15.7-24.9l0.4,0.1C31.9,62.2,18.8,88.6,18.8,88.6z"/>
			<path id="path410" class="st59" d="M20.3,89.3l-3.1-1.5l14.5-25.6l0.4,0.2L20.3,89.3L20.3,89.3L20.3,89.3z"/>
			<path id="path414" class="st60" d="M21.8,90c-1-0.4-2.1-1-3.1-1.5l13.2-26.3l0.4,0.3L21.8,90"/>
			<path id="path418" class="st61" d="M23.3,90.5c-1-0.3-2.1-0.7-3.1-1.2l11.9-26.9c0.1,0.1,0.3,0.2,0.5,0.2L23.3,90.5"/>
			<path id="path422" class="st62" d="M24.9,90.9L21.7,90l10.5-27.5l0.6,0.1L24.9,90.9z"/>
			<path id="path426" class="st62" d="M26.4,91.3l-3.2-0.9l9.3-27.9l0.6,0.1L26.4,91.3C26.4,91.3,26.4,91.3,26.4,91.3z"/>
			<path id="path430" class="st63" d="M27.9,91.7l-3.2-0.8l8.1-28.3l0.6,0.2L27.9,91.7L27.9,91.7z"/>
			<path id="path434" class="st64" d="M29.4,91.9c-1-0.1-2.1-0.4-3.1-0.6l6.8-28.6c0.2,0.1,0.3,0.2,0.7,0.2L29.4,91.9"/>
			<path id="path438" class="st65" d="M30.9,92.1c-1-0.1-2-0.1-3.1-0.4l5.6-28.9c0.2,0.1,0.5,0,0.8,0L30.9,92.1"/>
			<path id="path442" class="st65" d="M32.4,92.2l-3.1-0.3l4.4-29.1l0.8,0L32.4,92.2L32.4,92.2L32.4,92.2L32.4,92.2
				C32.4,92.2,32.4,92.2,32.4,92.2z"/>
			<path id="path446" class="st65" d="M33.8,92.3L30.8,92l3.3-29.2l0.8,0.1L33.8,92.3C33.8,92.3,33.8,92.3,33.8,92.3z"/>
			<path id="path450" class="st66" d="M35.3,92.4l-3.1-0.2l2.2-29.3l0.8,0.1L35.3,92.4z"/>
			<path id="path454" class="st66" d="M36.8,92.3c-1,0.1-2.1,0.1-3.1,0l1.1-29.4c0.3,0.1,0.5,0.1,0.8,0L36.8,92.3"/>
			<path id="path458" class="st67" d="M38.3,92.2l-3.1,0.2l0-29.4l0.8-0.1L38.3,92.2L38.3,92.2C38.3,92.2,38.3,92.2,38.3,92.2z"/>
			<path id="path462" class="st68" d="M39.8,92l-3.1,0.3l-1.1-29.4l0.8-0.1L39.8,92z"/>
			<path id="path466" class="st69" d="M41.2,91.9l-3.1,0.3L36,62.8l0.8,0L41.2,91.9C41.2,91.9,41.2,91.9,41.2,91.9z"/>
			<path id="path470" class="st69" d="M42.7,91.7c-1.1,0.3-2.1,0.3-3.1,0.4l-3.3-29.2c0.2,0,0.6,0,0.8-0.1L42.7,91.7"/>
			<path id="path474" class="st70" d="M44.3,91.3c-1.1,0.3-2.1,0.6-3.1,0.6l-4.3-29.1c0.3,0,0.5-0.1,0.6-0.2L44.3,91.3"/>
			<path id="path478" class="st70" d="M45.8,90.9l-3.2,0.8l-5.5-28.9l0.6-0.2L45.8,90.9C45.8,90.9,45.8,90.9,45.8,90.9z"/>
			<path id="path482" class="st71" d="M47.3,90.4l-3.2,0.9l-6.7-28.6l0.6-0.1L47.3,90.4z"/>
			<path id="path486" class="st72" d="M48.8,90l-3.1,0.9l-8-28.3l0.6-0.1L48.8,90L48.8,90L48.8,90L48.8,90z"/>
			<path id="path490" class="st73" d="M50.3,89.3c-1,0.5-2.1,0.9-3.1,1.2L38,62.5c0.2,0,0.4-0.1,0.5-0.2L50.3,89.3"/>
			<path id="path494" class="st73" d="M51.8,88.5c-1,0.5-2.1,1-3.1,1.5L38.3,62.5l0.4-0.3L51.8,88.5"/>
			<path id="path498" class="st74" d="M53.3,87.8l-3.1,1.5l-11.8-27l0.4-0.2L53.3,87.8L53.3,87.8L53.3,87.8z"/>
			<path id="path502" class="st74" d="M54.7,87l-3.1,1.6L38.6,62.2l0.4-0.1L54.7,87L54.7,87C54.7,87,54.7,87,54.7,87z"/>
			<path id="path506" class="st75" d="M56.1,86c-0.9,0.8-1.9,1.3-3,1.8L38.8,62.2c0.2,0,0.3-0.1,0.3-0.2L56.1,86"/>
			<path id="path510" class="st76" d="M57.5,84.9c-0.9,0.7-1.9,1.5-2.8,2.1L39,62.1l0.2-0.3L57.5,84.9"/>
			<path id="path514" class="st76" d="M58.8,83.9L56,86.1L39.1,62l0.3-0.2L58.8,83.9C58.8,83.9,58.8,83.9,58.8,83.9z"/>
			<path id="path518" class="st77" d="M60.1,82.8L57.4,85L39.2,61.8l0.3-0.2C39.6,61.7,60.1,82.8,60.1,82.8z"/>
			<path id="path522" class="st78" d="M61.2,81.5c-0.7,0.9-1.6,1.7-2.6,2.5L39.4,61.8c0.1,0,0.2-0.1,0.2-0.2L61.2,81.5"/>
			<path id="path526" class="st78" d="M62.3,80.2c-0.8,0.9-1.5,1.9-2.4,2.7L39.5,61.7l0.2-0.3L62.3,80.2"/>
			<path id="path530" class="st79" d="M63.4,78.8l-2.3,2.8l-21.5-20l0.2-0.3L63.4,78.8z"/>
			<path id="path534" class="st80" d="M64.5,77.5l-2.2,2.8L39.7,61.4l0.3-0.2L64.5,77.5L64.5,77.5L64.5,77.5
				C64.5,77.5,64.5,77.5,64.5,77.5z"/>
			<path id="path538" class="st81" d="M65.3,76c-0.5,1-1.2,2-2,2.9L39.8,61.3c0.1-0.1,0.2-0.1,0.2-0.3L65.3,76"/>
			<path id="path542" class="st81" d="M66.1,74.6c-0.6,1-1,2.1-1.7,3L39.9,61.2l0.1-0.4L66.1,74.6"/>
			<path id="path546" class="st82" d="M66.8,73.1l-1.6,3.1L40,61l0.2-0.4L66.8,73.1L66.8,73.1C66.8,73.1,66.8,73.1,66.8,73.1z"/>
			<path id="path550" class="st83" d="M67.6,71.6L66,74.7l-26-13.9l0.2-0.3L67.6,71.6L67.6,71.6C67.6,71.6,67.6,71.6,67.6,71.6z"/>
			<path id="path554" class="st84" d="M68.1,70.1c-0.3,1.1-0.8,2.1-1.3,3.1L40.2,60.7c0.1-0.1,0.2-0.2,0.2-0.4L68.1,70.1"/>
			<path id="path558" class="st84" d="M68.6,68.5c-0.3,1.1-0.6,2.1-1.1,3.2L40.3,60.5c0.1-0.1,0.1-0.4,0.1-0.5L68.6,68.5"/>
			<path id="path562" class="st85" d="M69,67l-0.9,3.2l-27.7-9.9l0.1-0.6L69,67L69,67L69,67z"/>
			<path id="path566" class="st86" d="M69.4,65.5l-0.9,3.2L40.4,60l0.2-0.5L69.4,65.5L69.4,65.5C69.4,65.5,69.4,65.5,69.4,65.5z"/>
			<path id="path570" class="st86" d="M69.7,63.9c-0.1,1-0.5,2.1-0.7,3.2l-28.5-7.4c0-0.2,0.2-0.3,0.2-0.6L69.7,63.9"/>
			<path id="path574" class="st87" d="M69.9,62.4c-0.1,1-0.2,2-0.5,3.1l-28.8-6.1c0.1-0.1,0.1-0.4,0.1-0.7L69.9,62.4"/>
			<path id="path578" class="st88" d="M70,61l-0.3,3.1l-29-4.9l0-0.8L70,61L70,61L70,61z"/>
			<path id="path582" class="st89" d="M70.1,59.5l-0.3,3.1l-29.2-3.8l0.1-0.8L70.1,59.5z"/>
			<path id="path586" class="st89" d="M70.2,58L70,61.1l-29.3-2.6l0.1-0.8L70.2,58z"/>
			<path id="path590" class="st90" d="M70.2,56.9c0,0.5-0.1,1.7-0.1,2.7l-29.4-1.5c0-0.3,0.1-0.4,0.1-1.2H70.2"/>
			<path id="path594" class="st90" d="M70.2,55.9c0,0.7,0,1.1,0,2.1l-29.4-0.4c0.1-0.3,0-1.2,0-1.8L70.2,55.9"/>
			<path id="path596" class="st91" d="M70.2,57H40.8V55h29.4V57z"/>
			<path id="path598" class="st91" d="M70.2,56H40.8v-1.9h29.4V56z"/>
			<path id="path600" class="st92" d="M70.2,55.1H40.8v-1.9h29.4V55.1z"/>
			<path id="path602" class="st93" d="M70.2,54.2H40.8v-1.9h29.4V54.2z"/>
			<path id="path604" class="st93" d="M70.2,53.2H40.8v-1.9h29.4V53.2z"/>
			<path id="path606" class="st94" d="M70.2,52.3H40.8v-1.9h29.4V52.3z"/>
			<path id="path608" class="st95" d="M70.2,51.3H40.8v-1.9h29.4V51.3z"/>
			<path id="path610" class="st95" d="M70.2,50.4H40.8v-1.9h29.4V50.4z"/>
			<path id="path612" class="st96" d="M70.2,49.5H40.8v-1.9h29.4V49.5z"/>
			<path id="path614" class="st97" d="M70.2,48.5H40.8v-1.9h29.4V48.5z"/>
			<path id="path616" class="st98" d="M70.2,47.6H40.8v-1.9h29.4V47.6z"/>
			<path id="path618" class="st99" d="M70.2,46.7H40.8v-1.9h29.4V46.7z"/>
			<path id="path620" class="st100" d="M70.2,45.7H40.8v-1.9h29.4V45.7z"/>
			<path id="path622" class="st101" d="M70.2,44.8H40.8v-1.9h29.4V44.8z"/>
			<path id="path624" class="st101" d="M70.2,43.9H40.8v-1.9h29.4V43.9z"/>
			<path id="path626" class="st102" d="M70.2,42.9H40.8V41h29.4V42.9z"/>
			<path id="path628" class="st103" d="M70.2,42H40.8v-1.9h29.4V42z"/>
			<path id="path630" class="st104" d="M70.2,41.1H40.8v-1.9h29.4V41.1z"/>
			<path id="path632" class="st104" d="M70.2,40.1H40.8v-1.9h29.4V40.1z"/>
			<path id="path634" class="st105" d="M70.2,39.2H40.8v-1.9h29.4V39.2z"/>
			<path id="path636" class="st106" d="M70.2,38.3H40.8v-1.9h29.4V38.3z"/>
			<path id="path638" class="st106" d="M70.2,37.3H40.8v-1.9h29.4V37.3z"/>
			<path id="path640" class="st107" d="M70.2,36.4H40.8v-1.9h29.4V36.4z"/>
			<path id="path642" class="st108" d="M70.2,35.5H40.8v-1.9h29.4V35.5z"/>
			<path id="path644" class="st109" d="M70.2,34.5H40.8v-1.9h29.4V34.5z"/>
			<path id="path646" class="st110" d="M70.2,33.6H40.8v-1.9h29.4V33.6z"/>
			<path id="path648" class="st110" d="M70.2,32.7H40.8v-1.9h29.4V32.7z"/>
			<path id="path650" class="st111" d="M70.2,31.7H40.8v-1.9h29.4V31.7z"/>
			<path id="path652" class="st112" d="M70.2,30.8H40.8v-1.9h29.4V30.8z"/>
			<path id="path654" class="st113" d="M70.2,29.9H40.8v-1.9h29.4V29.9z"/>
			<path id="path656" class="st114" d="M70.2,28.9H40.8V27h29.4V28.9z"/>
			<path id="path658" class="st115" d="M70.2,28H40.8V26h29.4V28z"/>
			<path id="path660" class="st116" d="M70.2,27H40.8v-1.9h29.4V27z"/>
			<path id="path662" class="st117" d="M70.2,26.1H40.8v-1.9h29.4V26.1z"/>
			<path id="path664" class="st118" d="M70.2,25.2H40.8v-1.9h29.4V25.2z"/>
			<path id="path666" class="st119" d="M70.2,24.2H40.8v-1.9h29.4V24.2z"/>
			<path id="path668" class="st120" d="M70.2,23.3H40.8v-1.9h29.4V23.3z"/>
			<path id="path670" class="st121" d="M70.2,22.4H40.8v-1.9h29.4V22.4z"/>
			<path id="path672" class="st122" d="M70.2,21.4H40.8v-1.9h29.4V21.4z"/>
			<path id="path674" class="st123" d="M70.2,20.5H40.8v-1.9h29.4V20.5z"/>
			<path id="path676" class="st124" d="M70.2,19.6H40.8v-1.9h29.4V19.6z"/>
			<path id="path678" class="st125" d="M70.2,18.6H40.8v-1.9h29.4V18.6z"/>
			<path id="path680" class="st126" d="M70.2,17.7H40.8v-1.9h29.4V17.7z"/>
			<path id="path682" class="st127" d="M70.2,16.8H40.8v-1.9h29.4V16.8z"/>
			<path id="path684" class="st128" d="M70.2,15.8H40.8v-1.9h29.4V15.8z"/>
			<path id="path686" class="st129" d="M70.2,14.9H40.8v-1.9h29.4V14.9z"/>
			<path id="path688" class="st130" d="M70.2,14H40.8V12h29.4V14z"/>
			<path id="path690" class="st131" d="M70.2,13H40.8v-1.9h29.4V13z"/>
			<path id="path692" class="st132" d="M70.2,12.1H40.8v-1.9h29.4V12.1z"/>
			<path id="path694" class="st133" d="M70.2,11.2H40.8V9.2h29.4V11.2z"/>
			<path id="path696" class="st134" d="M70.2,10.2H40.8V8.3h29.4V10.2z"/>
			<path id="path698" class="st135" d="M70.2,9.3H40.8V7.3h29.4C70.2,7.3,70.2,9.3,70.2,9.3z"/>
			<path id="path700" class="st136" d="M70.2,8.4H40.8V6.4h29.4V8.4z"/>
			<path id="path702" class="st137" d="M70.2,7.4H40.8V5.5h29.4V7.4z"/>
			<path id="path704" class="st138" d="M70.2,6.5H40.8V4.5h29.4V6.5z"/>
			<path id="path706" class="st139" d="M70.2,5.5H40.8V3.6h29.4V5.5z"/>
			<path id="path708" class="st140" d="M70.2,4.6H40.8V2.7h29.4V4.6z"/>
			<path id="path710" class="st141" d="M70.2,3.7H40.8V1.7h29.4V3.7z"/>
		</g>
	</g>
</g>
</svg>
